<?xml version="1.0" encoding="UTF-8" standalone="no"?>
<!DOCTYPE svg PUBLIC "-//W3C//DTD SVG 1.1//EN" "http://www.w3.org/Graphics/SVG/1.1/DTD/svg11.dtd">
<svg width="100%" height="100%" viewBox="0 0 1286 850" version="1.1" xmlns="http://www.w3.org/2000/svg" xmlns:xlink="http://www.w3.org/1999/xlink" xml:space="preserve" xmlns:serif="http://www.serif.com/" style="fill-rule:evenodd;clip-rule:evenodd;stroke-linecap:round;stroke-linejoin:round;stroke-miterlimit:1.5;">
    <g transform="matrix(1,0,0,1,-432.625,-359.58)">
        <path d="M637.041,878.444L637.041,1060.06L734.019,1060.06L584.822,1209.26L435.625,1060.06L532.603,1060.06L532.603,878.444L637.041,878.444ZM637.041,603.649L532.603,603.649L532.603,359.58L637.041,359.58L637.041,603.649Z" style="fill:rgb(235,235,235);"/>
    </g>
    <g transform="matrix(1.98031e-17,0.323409,-0.323409,1.98031e-17,534.423,91.2238)">
        <path d="M472.607,438.036L472.607,333.599L1173.09,333.599L1173.09,236.621L1322.29,385.817L1173.09,535.014L1173.09,438.036L472.607,438.036Z" style="fill:rgb(165,205,255);"/>
    </g>
    <g transform="matrix(1.98031e-17,0.323409,-0.323409,1.98031e-17,1292.8,91.2238)">
        <path d="M472.607,438.036L472.607,333.599L1173.09,333.599L1173.09,236.621L1322.29,385.817L1173.09,535.014L1173.09,438.036L472.607,438.036Z" style="fill:rgb(165,205,255);"/>
    </g>
    <g transform="matrix(0.808383,0,0,0.450461,-320.563,-27.8511)">
        <g transform="matrix(1.23704,-0,-0,2.21995,396.549,61.8281)">
            <path d="M272.119,166.529L284.208,172.348L272.299,178.527C275.254,175.483 275.164,169.483 272.119,166.529Z" style="fill-opacity:0.5;"/>
            <path d="M152.197,244.069C152.197,244.069 183.199,176.146 274.609,172.492" style="fill:none;stroke:black;stroke-opacity:0.5;stroke-width:4px;"/>
        </g>
    </g>
    <g transform="matrix(6.12323e-17,1,-1,6.12323e-17,1296.39,-472.607)">
        <path d="M472.607,438.036L472.607,333.599L1173.09,333.599L1173.09,236.621L1322.29,385.817L1173.09,535.014L1173.09,438.036L472.607,438.036Z" style="fill:rgb(235,235,235);"/>
    </g>
    <g transform="matrix(1,0,0,1,-432.625,-359.58)">
        <path d="M597.813,603.649L571.832,603.649C571.832,596.48 577.653,590.659 584.822,590.659C591.992,590.659 597.813,596.48 597.813,603.649Z" style="fill:rgb(10,96,255);"/>
    </g>
    <g transform="matrix(0.920138,0,0,1,-421.966,-359.58)">
        <path d="M461.85,603.649L956.23,603.649" style="fill:none;stroke:rgb(105,105,105);stroke-width:6.24px;stroke-dasharray:31.22,31.22,0,0;"/>
    </g>
    <g transform="matrix(-1,-1.22465e-16,1.22465e-16,-1,737.019,1122.51)">
        <path d="M597.813,603.649L571.832,603.649C571.832,596.48 577.653,590.659 584.822,590.659C591.992,590.659 597.813,596.48 597.813,603.649Z" style="fill:rgb(10,96,255);"/>
    </g>
    <g transform="matrix(0.920138,0,0,1,-421.966,-84.7852)">
        <path d="M461.85,603.649L956.23,603.649" style="fill:none;stroke:rgb(105,105,105);stroke-width:6.24px;stroke-dasharray:31.22,31.22,0,0;"/>
    </g>
    <g transform="matrix(0.808383,0,0,0.450461,437.811,-27.8511)">
        <g transform="matrix(1.23704,-0,-0,2.21995,-541.589,61.8281)">
            <path d="M1030.49,166.529L1042.58,172.348L1030.67,178.527C1033.63,175.483 1033.54,169.483 1030.49,166.529Z" style="fill-opacity:0.5;"/>
            <path d="M910.572,244.069C910.572,244.069 941.574,176.146 1032.98,172.492" style="fill:none;stroke:black;stroke-opacity:0.5;stroke-width:4px;"/>
        </g>
    </g>
    <g transform="matrix(1,0,0,1,698.747,-372.571)">
        <circle cx="211.825" cy="616.64" r="12.991" style="fill:rgb(10,96,255);"/>
    </g>
    <g transform="matrix(0.920138,0,0,1,336.408,-359.58)">
        <path d="M461.85,603.649L956.23,603.649" style="fill:none;stroke:rgb(105,105,105);stroke-width:6.24px;stroke-dasharray:31.22,31.22,0,0;"/>
    </g>
    <g transform="matrix(0.920138,0,0,1,336.408,-84.7852)">
        <path d="M461.85,603.649L956.23,603.649" style="fill:none;stroke:rgb(105,105,105);stroke-width:6.24px;stroke-dasharray:31.22,31.22,0,0;"/>
    </g>
    <g transform="matrix(1,0,0,1,-475.084,-267.253)">
        <g transform="matrix(24,0,0,24,777.335,447.322)">
            <path d="M0.532,-0.027L0.498,-0.086C0.469,-0.07 0.435,-0.06 0.395,-0.06C0.321,-0.06 0.292,-0.092 0.292,-0.152L0.292,-0.473L0.468,-0.473L0.478,-0.54L0.292,-0.54L0.292,-0.673L0.206,-0.663L0.206,-0.54L0.082,-0.54L0.082,-0.473L0.206,-0.473L0.206,-0.151C0.206,-0.056 0.271,0.012 0.387,0.012C0.437,0.012 0.495,-0.003 0.532,-0.027Z" style="fill:rgb(10,96,255);fill-rule:nonzero;"/>
        </g>
        <g transform="matrix(24,0,0,24,792.104,447.322)">
            <path d="M0.189,-0.766L0.103,-0.756L0.103,0L0.189,0L0.189,-0.393C0.217,-0.436 0.272,-0.484 0.334,-0.484C0.398,-0.484 0.427,-0.455 0.427,-0.39L0.427,0L0.513,0L0.513,-0.392C0.513,-0.492 0.467,-0.551 0.362,-0.551C0.298,-0.551 0.232,-0.523 0.189,-0.466L0.189,-0.766Z" style="fill:rgb(10,96,255);fill-rule:nonzero;"/>
        </g>
        <g transform="matrix(24,0,0,24,806.873,447.322)">
            <path d="M0.468,-0.552C0.37,-0.552 0.315,-0.501 0.274,-0.412L0.258,-0.54L0.108,-0.54L0.108,-0.474L0.192,-0.474L0.192,-0.066L0.108,-0.066L0.108,0L0.388,0L0.388,-0.066L0.278,-0.066L0.278,-0.295C0.314,-0.414 0.373,-0.472 0.456,-0.472L0.461,-0.472L0.461,-0.357L0.532,-0.357L0.544,-0.54C0.519,-0.547 0.498,-0.552 0.468,-0.552Z" style="fill:rgb(10,96,255);fill-rule:nonzero;"/>
        </g>
        <g transform="matrix(24,0,0,24,821.643,447.322)">
            <path d="M0.171,-0.239L0.534,-0.239C0.535,-0.251 0.536,-0.268 0.536,-0.287C0.536,-0.451 0.453,-0.551 0.316,-0.551C0.173,-0.551 0.081,-0.433 0.081,-0.269C0.081,-0.102 0.17,0.012 0.328,0.012C0.395,0.012 0.463,-0.012 0.513,-0.052L0.473,-0.109C0.425,-0.076 0.384,-0.06 0.329,-0.06C0.245,-0.06 0.175,-0.114 0.171,-0.239ZM0.317,-0.481C0.398,-0.481 0.451,-0.422 0.453,-0.306L0.171,-0.306C0.178,-0.425 0.237,-0.481 0.317,-0.481Z" style="fill:rgb(10,96,255);fill-rule:nonzero;"/>
        </g>
        <g transform="matrix(24,0,0,24,836.412,447.322)">
            <path d="M0.49,-0.118L0.49,-0.377C0.49,-0.484 0.422,-0.551 0.288,-0.551C0.235,-0.551 0.177,-0.542 0.111,-0.517L0.134,-0.452C0.19,-0.472 0.238,-0.48 0.274,-0.48C0.355,-0.48 0.403,-0.451 0.403,-0.373L0.403,-0.328L0.324,-0.328C0.159,-0.328 0.07,-0.266 0.07,-0.155C0.07,-0.054 0.136,0.012 0.245,0.012C0.314,0.012 0.375,-0.014 0.414,-0.064C0.429,-0.016 0.466,0.006 0.513,0.012L0.534,-0.049C0.504,-0.058 0.49,-0.074 0.49,-0.118ZM0.267,-0.054C0.196,-0.054 0.163,-0.089 0.163,-0.156C0.163,-0.225 0.206,-0.269 0.325,-0.269L0.403,-0.269L0.403,-0.13C0.371,-0.082 0.32,-0.054 0.267,-0.054Z" style="fill:rgb(10,96,255);fill-rule:nonzero;"/>
        </g>
        <g transform="matrix(24,0,0,24,851.181,447.322)">
            <path d="M0.426,-0.768L0.426,-0.488C0.39,-0.53 0.344,-0.551 0.282,-0.551C0.148,-0.551 0.07,-0.432 0.07,-0.269C0.07,-0.102 0.134,0.012 0.275,0.012C0.335,0.012 0.388,-0.014 0.429,-0.071L0.437,0L0.512,0L0.512,-0.757L0.426,-0.768ZM0.304,-0.482C0.354,-0.482 0.397,-0.456 0.426,-0.413L0.426,-0.143C0.397,-0.099 0.354,-0.058 0.293,-0.058C0.209,-0.058 0.164,-0.129 0.164,-0.269C0.164,-0.412 0.214,-0.482 0.304,-0.482Z" style="fill:rgb(10,96,255);fill-rule:nonzero;"/>
        </g>
        <g transform="matrix(24,0,0,24,865.95,447.322)">
            <path d="M0.217,-0.079C0.217,-0.028 0.256,0.012 0.307,0.012C0.358,0.012 0.397,-0.028 0.397,-0.079C0.397,-0.129 0.358,-0.169 0.307,-0.169C0.256,-0.169 0.217,-0.129 0.217,-0.079Z" style="fill:rgb(10,96,255);fill-rule:nonzero;"/>
        </g>
        <g transform="matrix(24,0,0,24,880.72,447.322)">
            <path d="M0.376,-0.793C0.339,-0.793 0.314,-0.767 0.314,-0.733C0.314,-0.698 0.339,-0.671 0.376,-0.671C0.414,-0.671 0.439,-0.698 0.439,-0.733C0.439,-0.767 0.414,-0.793 0.376,-0.793ZM0.456,-0.54L0.146,-0.54L0.146,-0.472L0.37,-0.472L0.37,-0.081C0.37,0.064 0.258,0.124 0.098,0.151L0.112,0.217C0.33,0.181 0.456,0.094 0.456,-0.087L0.456,-0.54Z" style="fill:rgb(10,96,255);fill-rule:nonzero;"/>
        </g>
        <g transform="matrix(24,0,0,24,895.489,447.322)">
            <path d="M0.309,-0.551C0.156,-0.551 0.075,-0.436 0.075,-0.269C0.075,-0.099 0.155,0.012 0.308,0.012C0.459,0.012 0.54,-0.105 0.54,-0.27C0.54,-0.442 0.461,-0.551 0.309,-0.551ZM0.309,-0.481C0.401,-0.481 0.448,-0.414 0.448,-0.27C0.448,-0.127 0.401,-0.059 0.308,-0.059C0.215,-0.059 0.168,-0.127 0.168,-0.269C0.168,-0.414 0.216,-0.481 0.309,-0.481Z" style="fill:rgb(10,96,255);fill-rule:nonzero;"/>
        </g>
        <g transform="matrix(24,0,0,24,910.258,447.322)">
            <path d="M0.308,-0.793C0.271,-0.793 0.246,-0.767 0.246,-0.733C0.246,-0.698 0.271,-0.671 0.308,-0.671C0.346,-0.671 0.371,-0.698 0.371,-0.733C0.371,-0.767 0.346,-0.793 0.308,-0.793ZM0.376,-0.54L0.129,-0.54L0.129,-0.472L0.29,-0.472L0.29,-0.068L0.124,-0.068L0.124,0L0.529,0L0.529,-0.068L0.376,-0.068L0.376,-0.54Z" style="fill:rgb(10,96,255);fill-rule:nonzero;"/>
        </g>
        <g transform="matrix(24,0,0,24,925.027,447.322)">
            <path d="M0.103,0L0.189,0L0.189,-0.393C0.217,-0.435 0.271,-0.484 0.335,-0.484C0.416,-0.484 0.427,-0.439 0.427,-0.329L0.427,0L0.513,0L0.513,-0.392C0.513,-0.492 0.468,-0.551 0.362,-0.551C0.299,-0.551 0.227,-0.521 0.183,-0.465L0.176,-0.54L0.103,-0.54L0.103,0Z" style="fill:rgb(10,96,255);fill-rule:nonzero;"/>
        </g>
        <g transform="matrix(24,0,0,24,939.796,447.322)">
            <path d="M0.218,-0.359C0.218,-0.574 0.29,-0.683 0.437,-0.814L0.392,-0.862C0.226,-0.726 0.128,-0.593 0.128,-0.359C0.128,-0.125 0.226,0.008 0.392,0.144L0.437,0.096C0.291,-0.033 0.218,-0.145 0.218,-0.359Z" style="fill:rgb(10,96,255);fill-rule:nonzero;"/>
        </g>
        <g transform="matrix(24,0,0,24,954.566,447.322)">
            <path d="M0.397,-0.359C0.397,-0.145 0.325,-0.033 0.178,0.096L0.223,0.144C0.39,0.008 0.488,-0.125 0.488,-0.359C0.488,-0.593 0.39,-0.726 0.223,-0.862L0.178,-0.814C0.326,-0.683 0.397,-0.574 0.397,-0.359Z" style="fill:rgb(10,96,255);fill-rule:nonzero;"/>
        </g>
    </g>
    <g transform="matrix(1,0,0,1,283.29,-266.367)">
        <g transform="matrix(24,0,0,24,777.335,447.322)">
            <path d="M0.532,-0.027L0.498,-0.086C0.469,-0.07 0.435,-0.06 0.395,-0.06C0.321,-0.06 0.292,-0.092 0.292,-0.152L0.292,-0.473L0.468,-0.473L0.478,-0.54L0.292,-0.54L0.292,-0.673L0.206,-0.663L0.206,-0.54L0.082,-0.54L0.082,-0.473L0.206,-0.473L0.206,-0.151C0.206,-0.056 0.271,0.012 0.387,0.012C0.437,0.012 0.495,-0.003 0.532,-0.027Z" style="fill:rgb(10,96,255);fill-rule:nonzero;"/>
        </g>
        <g transform="matrix(24,0,0,24,792.104,447.322)">
            <path d="M0.189,-0.766L0.103,-0.756L0.103,0L0.189,0L0.189,-0.393C0.217,-0.436 0.272,-0.484 0.334,-0.484C0.398,-0.484 0.427,-0.455 0.427,-0.39L0.427,0L0.513,0L0.513,-0.392C0.513,-0.492 0.467,-0.551 0.362,-0.551C0.298,-0.551 0.232,-0.523 0.189,-0.466L0.189,-0.766Z" style="fill:rgb(10,96,255);fill-rule:nonzero;"/>
        </g>
        <g transform="matrix(24,0,0,24,806.873,447.322)">
            <path d="M0.468,-0.552C0.37,-0.552 0.315,-0.501 0.274,-0.412L0.258,-0.54L0.108,-0.54L0.108,-0.474L0.192,-0.474L0.192,-0.066L0.108,-0.066L0.108,0L0.388,0L0.388,-0.066L0.278,-0.066L0.278,-0.295C0.314,-0.414 0.373,-0.472 0.456,-0.472L0.461,-0.472L0.461,-0.357L0.532,-0.357L0.544,-0.54C0.519,-0.547 0.498,-0.552 0.468,-0.552Z" style="fill:rgb(10,96,255);fill-rule:nonzero;"/>
        </g>
        <g transform="matrix(24,0,0,24,821.643,447.322)">
            <path d="M0.171,-0.239L0.534,-0.239C0.535,-0.251 0.536,-0.268 0.536,-0.287C0.536,-0.451 0.453,-0.551 0.316,-0.551C0.173,-0.551 0.081,-0.433 0.081,-0.269C0.081,-0.102 0.17,0.012 0.328,0.012C0.395,0.012 0.463,-0.012 0.513,-0.052L0.473,-0.109C0.425,-0.076 0.384,-0.06 0.329,-0.06C0.245,-0.06 0.175,-0.114 0.171,-0.239ZM0.317,-0.481C0.398,-0.481 0.451,-0.422 0.453,-0.306L0.171,-0.306C0.178,-0.425 0.237,-0.481 0.317,-0.481Z" style="fill:rgb(10,96,255);fill-rule:nonzero;"/>
        </g>
        <g transform="matrix(24,0,0,24,836.412,447.322)">
            <path d="M0.49,-0.118L0.49,-0.377C0.49,-0.484 0.422,-0.551 0.288,-0.551C0.235,-0.551 0.177,-0.542 0.111,-0.517L0.134,-0.452C0.19,-0.472 0.238,-0.48 0.274,-0.48C0.355,-0.48 0.403,-0.451 0.403,-0.373L0.403,-0.328L0.324,-0.328C0.159,-0.328 0.07,-0.266 0.07,-0.155C0.07,-0.054 0.136,0.012 0.245,0.012C0.314,0.012 0.375,-0.014 0.414,-0.064C0.429,-0.016 0.466,0.006 0.513,0.012L0.534,-0.049C0.504,-0.058 0.49,-0.074 0.49,-0.118ZM0.267,-0.054C0.196,-0.054 0.163,-0.089 0.163,-0.156C0.163,-0.225 0.206,-0.269 0.325,-0.269L0.403,-0.269L0.403,-0.13C0.371,-0.082 0.32,-0.054 0.267,-0.054Z" style="fill:rgb(10,96,255);fill-rule:nonzero;"/>
        </g>
        <g transform="matrix(24,0,0,24,851.181,447.322)">
            <path d="M0.426,-0.768L0.426,-0.488C0.39,-0.53 0.344,-0.551 0.282,-0.551C0.148,-0.551 0.07,-0.432 0.07,-0.269C0.07,-0.102 0.134,0.012 0.275,0.012C0.335,0.012 0.388,-0.014 0.429,-0.071L0.437,0L0.512,0L0.512,-0.757L0.426,-0.768ZM0.304,-0.482C0.354,-0.482 0.397,-0.456 0.426,-0.413L0.426,-0.143C0.397,-0.099 0.354,-0.058 0.293,-0.058C0.209,-0.058 0.164,-0.129 0.164,-0.269C0.164,-0.412 0.214,-0.482 0.304,-0.482Z" style="fill:rgb(10,96,255);fill-rule:nonzero;"/>
        </g>
        <g transform="matrix(24,0,0,24,865.95,447.322)">
            <path d="M0.217,-0.079C0.217,-0.028 0.256,0.012 0.307,0.012C0.358,0.012 0.397,-0.028 0.397,-0.079C0.397,-0.129 0.358,-0.169 0.307,-0.169C0.256,-0.169 0.217,-0.129 0.217,-0.079Z" style="fill:rgb(10,96,255);fill-rule:nonzero;"/>
        </g>
        <g transform="matrix(24,0,0,24,880.72,447.322)">
            <path d="M0.426,-0.768L0.426,-0.488C0.39,-0.53 0.344,-0.551 0.282,-0.551C0.148,-0.551 0.07,-0.432 0.07,-0.269C0.07,-0.102 0.134,0.012 0.275,0.012C0.335,0.012 0.388,-0.014 0.429,-0.071L0.437,0L0.512,0L0.512,-0.757L0.426,-0.768ZM0.304,-0.482C0.354,-0.482 0.397,-0.456 0.426,-0.413L0.426,-0.143C0.397,-0.099 0.354,-0.058 0.293,-0.058C0.209,-0.058 0.164,-0.129 0.164,-0.269C0.164,-0.412 0.214,-0.482 0.304,-0.482Z" style="fill:rgb(10,96,255);fill-rule:nonzero;"/>
        </g>
        <g transform="matrix(24,0,0,24,895.489,447.322)">
            <path d="M0.171,-0.239L0.534,-0.239C0.535,-0.251 0.536,-0.268 0.536,-0.287C0.536,-0.451 0.453,-0.551 0.316,-0.551C0.173,-0.551 0.081,-0.433 0.081,-0.269C0.081,-0.102 0.17,0.012 0.328,0.012C0.395,0.012 0.463,-0.012 0.513,-0.052L0.473,-0.109C0.425,-0.076 0.384,-0.06 0.329,-0.06C0.245,-0.06 0.175,-0.114 0.171,-0.239ZM0.317,-0.481C0.398,-0.481 0.451,-0.422 0.453,-0.306L0.171,-0.306C0.178,-0.425 0.237,-0.481 0.317,-0.481Z" style="fill:rgb(10,96,255);fill-rule:nonzero;"/>
        </g>
        <g transform="matrix(24,0,0,24,910.258,447.322)">
            <path d="M0.532,-0.027L0.498,-0.086C0.469,-0.07 0.435,-0.06 0.395,-0.06C0.321,-0.06 0.292,-0.092 0.292,-0.152L0.292,-0.473L0.468,-0.473L0.478,-0.54L0.292,-0.54L0.292,-0.673L0.206,-0.663L0.206,-0.54L0.082,-0.54L0.082,-0.473L0.206,-0.473L0.206,-0.151C0.206,-0.056 0.271,0.012 0.387,0.012C0.437,0.012 0.495,-0.003 0.532,-0.027Z" style="fill:rgb(10,96,255);fill-rule:nonzero;"/>
        </g>
        <g transform="matrix(24,0,0,24,925.027,447.322)">
            <path d="M0.49,-0.118L0.49,-0.377C0.49,-0.484 0.422,-0.551 0.288,-0.551C0.235,-0.551 0.177,-0.542 0.111,-0.517L0.134,-0.452C0.19,-0.472 0.238,-0.48 0.274,-0.48C0.355,-0.48 0.403,-0.451 0.403,-0.373L0.403,-0.328L0.324,-0.328C0.159,-0.328 0.07,-0.266 0.07,-0.155C0.07,-0.054 0.136,0.012 0.245,0.012C0.314,0.012 0.375,-0.014 0.414,-0.064C0.429,-0.016 0.466,0.006 0.513,0.012L0.534,-0.049C0.504,-0.058 0.49,-0.074 0.49,-0.118ZM0.267,-0.054C0.196,-0.054 0.163,-0.089 0.163,-0.156C0.163,-0.225 0.206,-0.269 0.325,-0.269L0.403,-0.269L0.403,-0.13C0.371,-0.082 0.32,-0.054 0.267,-0.054Z" style="fill:rgb(10,96,255);fill-rule:nonzero;"/>
        </g>
        <g transform="matrix(24,0,0,24,939.796,447.322)">
            <path d="M0.347,-0.063C0.254,-0.063 0.187,-0.124 0.187,-0.268C0.187,-0.41 0.254,-0.479 0.347,-0.479C0.394,-0.479 0.441,-0.463 0.487,-0.431L0.529,-0.489C0.477,-0.53 0.417,-0.551 0.348,-0.551C0.186,-0.551 0.094,-0.43 0.094,-0.268C0.094,-0.098 0.186,0.012 0.347,0.012C0.411,0.012 0.483,-0.013 0.53,-0.053L0.488,-0.11C0.448,-0.082 0.402,-0.063 0.347,-0.063Z" style="fill:rgb(10,96,255);fill-rule:nonzero;"/>
        </g>
        <g transform="matrix(24,0,0,24,954.566,447.322)">
            <path d="M0.189,-0.766L0.103,-0.756L0.103,0L0.189,0L0.189,-0.393C0.217,-0.436 0.272,-0.484 0.334,-0.484C0.398,-0.484 0.427,-0.455 0.427,-0.39L0.427,0L0.513,0L0.513,-0.392C0.513,-0.492 0.467,-0.551 0.362,-0.551C0.298,-0.551 0.232,-0.523 0.189,-0.466L0.189,-0.766Z" style="fill:rgb(10,96,255);fill-rule:nonzero;"/>
        </g>
        <g transform="matrix(24,0,0,24,969.335,447.322)">
            <path d="M0.218,-0.359C0.218,-0.574 0.29,-0.683 0.437,-0.814L0.392,-0.862C0.226,-0.726 0.128,-0.593 0.128,-0.359C0.128,-0.125 0.226,0.008 0.392,0.144L0.437,0.096C0.291,-0.033 0.218,-0.145 0.218,-0.359Z" style="fill:rgb(10,96,255);fill-rule:nonzero;"/>
        </g>
        <g transform="matrix(24,0,0,24,984.104,447.322)">
            <path d="M0.397,-0.359C0.397,-0.145 0.325,-0.033 0.178,0.096L0.223,0.144C0.39,0.008 0.488,-0.125 0.488,-0.359C0.488,-0.593 0.39,-0.726 0.223,-0.862L0.178,-0.814C0.326,-0.683 0.397,-0.574 0.397,-0.359Z" style="fill:rgb(10,96,255);fill-rule:nonzero;"/>
        </g>
    </g>
</svg>
